<svg xmlns="http://www.w3.org/2000/svg" width="160" height="160" viewBox="0 0 160 160"><g id="Group_243" data-name="Group 243" transform="translate(-284 -1256)"><g id="Ellipse_1" data-name="Ellipse 1" transform="translate(284 1256)" fill="#fff" stroke="#1ba6ea" stroke-width="3"><circle cx="80" cy="80" r="80" stroke="none"></circle><circle cx="80" cy="80" r="78.5" fill="none"></circle></g><g id="Group_26" data-name="Group 26" transform="translate(-2482.574 -1970.731)"><path id="Path_79" data-name="Path 79" d="M2884.478,3292.13a2.566,2.566,0,0,0-.807-2.006q-10.346-10.292-20.637-20.641a2.4,2.4,0,0,0-1.876-.752q-14.671.035-29.341,0a2.231,2.231,0,0,0-1.742.7q-10.351,10.4-20.747,20.746a2.4,2.4,0,0,0-.753,1.874q.034,14.671,0,29.342a2.231,2.231,0,0,0,.7,1.741q10.395,10.352,20.744,20.749a2.386,2.386,0,0,0,1.874.755c4.839-.031,9.678-.016,14.518-.016,4.89,0,9.781-.016,14.671.015a2.55,2.55,0,0,0,2-.807q10.235-10.3,20.531-20.532a2.717,2.717,0,0,0,.86-2.137Q2884.439,3306.647,2884.478,3292.13Zm-3.433,30.481q-9.388,9.306-18.694,18.7a3.238,3.238,0,0,1-2.525,1.078q-13.371-.058-26.744,0a2.739,2.739,0,0,1-2.15-.857q-9.585-9.65-19.236-19.234a2.723,2.723,0,0,1-.858-2.15c.038-4.482.018-8.965.017-13.448s.019-8.966-.017-13.448a2.723,2.723,0,0,1,.852-2.153q9.651-9.584,19.236-19.234a2.738,2.738,0,0,1,2.149-.86q13.448.042,26.9,0a2.9,2.9,0,0,1,2.263.961q9.424,9.487,18.911,18.911a3.229,3.229,0,0,1,1.08,2.521q-.063,13.219,0,26.438A3.564,3.564,0,0,1,2881.044,3322.61Z" transform="translate(0)" fill="#1ba6ea"></path><path id="Path_80" data-name="Path 80" d="M3136.863,3453.848a5.131,5.131,0,0,0-7.113,1.509c-.786,1.1-1.537,2.217-2.571,3.712,0-.936,0-1.421,0-1.906,0-6.265.021-12.531-.012-18.8a4.446,4.446,0,0,0-5.713-4.562c-1.067.277-1.213-.1-1.526-.882a4.175,4.175,0,0,0-4.068-2.7,4.439,4.439,0,0,0-4.212,2.534,8.142,8.142,0,0,0-.49,2.355c-4.077-.877-5.672.029-6.744,3.948-.257.941-.7.425-1.116.336a4.51,4.51,0,0,0-5.7,4.335c-.047,8.761-.1,17.524.035,26.283.1,6.111,3.119,10.271,8.425,12.2a16.769,16.769,0,0,0,4.773.939c6.886.4,13.064-.739,17.15-7.206,3.205-5.073,6.706-9.958,10.039-14.951A5.034,5.034,0,0,0,3136.863,3453.848Zm-.614,5.627c-1.26,1.971-2.613,3.883-3.924,5.822-2.251,3.329-4.511,6.651-6.747,9.99a11.546,11.546,0,0,1-8.795,5.372,28.646,28.646,0,0,1-7.908-.082c-5.431-.942-8.8-4.643-8.877-10.2-.125-8.81-.054-17.622-.065-26.433,0-.051,0-.1,0-.153a2.158,2.158,0,0,1,2.21-2.219,2.1,2.1,0,0,1,2.219,2.2c.048,3.31.039,6.621.014,9.931-.007.861.029,1.41,1.178,1.423s1.188-.508,1.183-1.378c-.028-4.635-.017-9.27-.014-13.9,0-1.885.737-2.786,2.247-2.775,1.489.01,2.265.945,2.27,2.8q.016,6.952,0,13.9c0,.763-.055,1.343,1.065,1.35s1.217-.464,1.212-1.365c-.029-5.908-.016-11.816-.016-17.724,0-.408-.017-.816.009-1.222a2.181,2.181,0,0,1,2.323-2.277,2.14,2.14,0,0,1,2.2,2.383c.019,6.315.034,12.631-.018,18.946-.009,1.057.355,1.236,1.3,1.247,1.136.014,1.044-.646,1.043-1.386q-.011-7.334,0-14.668a6.541,6.541,0,0,1,.093-1.518,2.23,2.23,0,0,1,4.312.088,7.671,7.671,0,0,1,.055,1.523q0,12.682,0,25.364v1.469l.332.087,5.977-8.644c.231-.335.444-.685.7-1a2.707,2.707,0,0,1,3.795-.626A2.628,2.628,0,0,1,3136.249,3459.475Z" transform="translate(-268.454 -150.022)" fill="#1ba6ea"></path></g></g></svg>