<svg xmlns="http://www.w3.org/2000/svg" width="160" height="160" viewBox="0 0 160 160"><g id="Group_244" data-name="Group 244" transform="translate(-881 -1256)"><g id="Ellipse_2" data-name="Ellipse 2" transform="translate(881 1256)" fill="#fff" stroke="#1ba6ea" stroke-width="3"><circle cx="80" cy="80" r="80" stroke="none"></circle><circle cx="80" cy="80" r="78.5" fill="none"></circle></g><g id="Group_13" data-name="Group 13" transform="translate(-648.123 332.523)"><path id="Path_44" data-name="Path 44" d="M1656.829,997.828q.17-9.3-.007-18.6a14.974,14.974,0,0,0-29.709-2.054c-.643,3.777-.089,7.6-.271,10.511,0,3.953-.057,7.029.011,10.1a14.994,14.994,0,0,0,29.975.045Zm-17.215-25.162a8.877,8.877,0,0,1,2.146-.316,1.186,1.186,0,0,1,1.311,1.082,1.132,1.132,0,0,1-1,1.355c-1.031.175-1.779.627-1.354,1.745.409,1.078,1.389.894,2.272.6a3.976,3.976,0,0,0,2.684-3.631,7.294,7.294,0,0,1,3.306,8.679,7.512,7.512,0,1,1-9.367-9.511Zm-5.284,15.272a7.607,7.607,0,0,0,.01-1.3c4.988,4.231,9.9,4.322,14.855.1.093.151.136.189.138.229.208,4.241.1,4.041-3.592,6.065a7.9,7.9,0,0,1-8.324.008C1635.063,991.811,1633.776,990.623,1634.331,987.939Zm4.237,21.474a12.484,12.484,0,0,1-9.193-11.2c-.1-2.026-.016-4.061-.016-6.385,2.469,1.175,4.709,2.243,6.951,3.308,5.117,2.432,10.224,4.884,15.36,7.275,1,.466,1.341.795.61,1.88A12.64,12.64,0,0,1,1638.568,1009.413Z" transform="translate(-32.727)" fill="#1ba6ea"></path><path id="Path_45" data-name="Path 45" d="M1707.356,1108.154q3.064-3.342,6.167-6.648a7.1,7.1,0,0,0,2.077-5.365c-.094-2.446-.022-4.9-.02-7.348,0-2.815.029-5.63-.007-8.444a3.746,3.746,0,1,0-7.484-.122c-.052,1.927-.007,3.857-.017,5.785,0,.888.265,1.6,1.276,1.594s1.244-.743,1.236-1.625c-.016-1.72.008-3.44-.011-5.16-.01-.955.083-1.915,1.292-1.893s1.222,1.016,1.219,1.949c-.012,5-.062,10.009.022,15.011a5.6,5.6,0,0,1-1.666,4.2c-2.119,2.227-4.19,4.5-6.284,6.752a6.6,6.6,0,0,0-2.022,3.788c-.074.741-.42.793-1.005.786-1.876-.024-3.754-.043-5.629.007-.769.02-.97-.249-.953-.982.048-1.98.081-3.963.011-5.941a4.418,4.418,0,0,1,1.333-3.375q4.342-4.5,8.7-8.991c.633-.654,1.333-1.141,2.13-.309.725.757.263,1.415-.327,2.025-1.666,1.723-3.316,3.463-4.984,5.185-.632.653-.877,1.354-.135,2.029.679.618,1.33.333,1.907-.271,1.8-1.885,3.657-3.717,5.4-5.651a3.712,3.712,0,0,0-5.378-5.116c-3.159,3.179-6.26,6.416-9.355,9.658a6.238,6.238,0,0,0-1.787,4.681c.058,1.823-.029,3.649.012,5.472.022.939-.027,1.621-1.175,1.946a2.091,2.091,0,0,0-1.33,2.118c-.026.833.063,1.676-.026,2.5-.114,1.047.287,1.291,1.291,1.279,4.378-.054,8.756-.022,13.135-.025,3.138,0,3.112,0,3.122-3.172,0-1.251-.265-2.411-1.525-2.784-1.34-.4-1-1.085-.551-1.826A10.985,10.985,0,0,1,1707.356,1108.154Z" transform="translate(-76.431 -76.519)" fill="#1ba6ea"></path><path id="Path_46" data-name="Path 46" d="M1602.3,1111.537c-.682-.206-.7-.593-.693-1.142.016-1.875-.075-3.755.016-5.626a7.022,7.022,0,0,0-2.13-5.492c-2.947-3.021-5.852-6.083-8.815-9.087a3.739,3.739,0,1,0-5.36,5.2c1.634,1.753,3.32,3.457,4.976,5.189.614.643,1.288,1.233,2.124.452.919-.859.276-1.576-.375-2.249-1.593-1.647-3.173-3.309-4.768-4.955-.593-.611-1.043-1.273-.315-2.024.8-.824,1.5-.334,2.13.32,2.9,3,5.805,5.982,8.689,8.991a3.946,3.946,0,0,1,1.314,2.747c0,2.188-.015,4.377.032,6.565.015.73-.176,1-.949.983-1.874-.051-3.751-.029-5.626-.008-.576.007-.938-.026-1.006-.78a6.318,6.318,0,0,0-1.909-3.674q-3.286-3.56-6.591-7.1a5.017,5.017,0,0,1-1.469-3.8c.085-2.446.023-4.9.022-7.345,0-2.657.013-5.315-.009-7.972-.008-.912.111-1.789,1.206-1.816,1.21-.03,1.321.906,1.308,1.87-.022,1.667.009,3.335-.011,5-.011.9.09,1.779,1.212,1.8,1.238.026,1.31-.918,1.3-1.869-.016-1.667,0-3.334-.006-5-.013-2.575-1.483-4.3-3.691-4.343-2.253-.045-3.81,1.73-3.813,4.374-.006,5.158.046,10.317-.023,15.474a6.988,6.988,0,0,0,1.943,5.1q3.193,3.432,6.373,6.877a7.3,7.3,0,0,1,1.458,2.012c.276.639.432,1.1-.513,1.376a2.41,2.41,0,0,0-1.735,2.649,8.791,8.791,0,0,1-.013,1.561c-.224,1.438.2,1.945,1.787,1.9,4.216-.132,8.439-.046,12.66-.044,3.129,0,3.1,0,3.1-3.191C1604.13,1113.049,1603.7,1111.959,1602.3,1111.537Z" transform="translate(0 -76.506)" fill="#1ba6ea"></path></g></g></svg>