<svg xmlns="http://www.w3.org/2000/svg" width="160" height="160" viewBox="0 0 160 160"><g id="Group_245" data-name="Group 245" transform="translate(-1477 -1256)"><g id="Ellipse_3" data-name="Ellipse 3" transform="translate(1477 1256)" fill="#fff" stroke="#1ba6ea" stroke-width="3"><circle cx="80" cy="80" r="80" stroke="none"></circle><circle cx="80" cy="80" r="78.5" fill="none"></circle></g><g id="Group_27" data-name="Group 27" transform="translate(-1339.435 -2061.759)"><path id="Path_81" data-name="Path 81" d="M2925.747,3374.164a4.459,4.459,0,0,0-4.794-4.833q-17.316-.013-34.632,0a4.455,4.455,0,0,0-4.74,4.751c-.012,2.851-.037,5.7.021,8.554.017.868-.246,1.079-1.084,1.066-3.126-.049-6.254-.024-9.382-.019-3.292.006-5.011,1.723-5.013,5.018q-.007,14.073,0,28.147c0,5.555,3.786,9.343,9.351,9.344q20.489,0,40.979,0a8.868,8.868,0,0,0,9.3-9.256q.007-10.624,0-21.248Q2925.749,3384.926,2925.747,3374.164Zm-50.847,49.818a6.623,6.623,0,0,1-6.56-6.611q-.039-14.407-.005-28.815c0-1.629.831-2.624,2.157-2.659,1.372-.036,2.245,1,2.25,2.7.009,3.4,0,6.8,0,10.2,0,3.447.032,6.894-.02,10.34-.013.867.243,1.087,1.083,1.065,2.2-.058,4.412.014,6.617-.038.851-.02,1.216.148,1.178,1.109-.078,2.019,0,4.044-.03,6.065A6.645,6.645,0,0,1,2874.9,3423.982Zm48.637-7.071a6.649,6.649,0,0,1-7.081,7.072q-16.9,0-33.8,0H2880.8c2.481-2.443,3.03-5.163,3.016-8.185-.061-13.7-.029-27.4-.029-41.107,0-2.522.638-3.154,3.187-3.154q16.76,0,33.52,0c2.35,0,3.042.689,3.042,3.025Q2923.539,3395.738,2923.536,3416.912Z" fill="#1ba6ea"></path><path id="Path_82" data-name="Path 82" d="M3594.271,3742.71c-1.422-.038-2.845-.008-4.268-.009-1.377,0-2.754-.02-4.131,0a2.228,2.228,0,0,0-2.5,2.448q-.041,4.2,0,8.4a2.188,2.188,0,0,0,2.408,2.391q4.2.042,8.4,0a2.191,2.191,0,0,0,2.425-2.375q.046-4.268,0-8.537A2.17,2.17,0,0,0,3594.271,3742.71Z" transform="translate(-676.946 -352.393)" fill="#1ba6ea"></path><path id="Path_83" data-name="Path 83" d="M3298.934,4037.61c-4.6.012-9.193.006-13.79.006-4.643,0-9.285.006-13.927-.006-.775,0-1.455.189-1.49,1.05-.039.958.67,1.184,1.5,1.17,1.057-.018,2.115-.006,3.172-.006q12.2,0,24.407.007c.817,0,1.708.013,1.759-1.047S3299.792,4037.608,3298.934,4037.61Z" transform="translate(-380.934 -630.745)" fill="#1ba6ea"></path><path id="Path_84" data-name="Path 84" d="M3298.925,4135.912q-13.652.011-27.3,0c-.875,0-1.813.013-1.771,1.172.038,1.054.944,1.048,1.76,1.047q6.757-.012,13.514,0,6.9,0,13.79,0c.872,0,1.814,0,1.769-1.17C3300.643,4135.908,3299.745,4135.911,3298.925,4135.912Z" transform="translate(-381.051 -723.525)" fill="#1ba6ea"></path><path id="Path_85" data-name="Path 85" d="M3519.65,3513.317c.222,1.2.979.959,1.727.986.716.025,1.307.066,1.429-.97a37.106,37.106,0,0,1,.842-3.851,26.555,26.555,0,0,1,1.035,3.98c.113.577.341.98.989.83.677-.157,1.692.534,1.992-.573.679-2.51,1.254-5.049,1.875-7.591-2.07-.221-2.071-.222-2.469,1.542-.292,1.294-.582,2.589-.949,4.221-.429-1.845-.848-3.382-1.122-4.944-.136-.777-.467-.951-1.183-.948s-1.206.074-1.362.934c-.272,1.505-.654,2.99-.99,4.484a26.649,26.649,0,0,1-1.231-4.625c-.217-1.179-1.1-.763-1.738-.743-.962.031-.406.73-.318,1.109C3518.652,3509.216,3519.268,3511.244,3519.65,3513.317Z" transform="translate(-615.204 -128.962)" fill="#1ba6ea"></path><path id="Path_86" data-name="Path 86" d="M3241.387,3513.005c-.078-1.5-.021-3.01-.021-4.516a14.762,14.762,0,0,1,2.041,3.7c.558,1.7,1.657,2.054,3.234,1.866.551-.066.817-.147.809-.774-.03-2.249-.047-4.5.007-6.747.022-.9-.509-.8-1.061-.78s-1.233-.231-1.182.8c.066,1.322.016,2.65.016,3.975l-.225.064a22.274,22.274,0,0,1-1.615-2.986,2.663,2.663,0,0,0-3.251-1.89c-.753.086-1.019.228-1,1.017.051,2.11.073,4.224-.008,6.333-.038.985.444.961,1.157.99C3241.1,3514.088,3241.433,3513.9,3241.387,3513.005Z" transform="translate(-352.056 -128.694)" fill="#1ba6ea"></path><path id="Path_87" data-name="Path 87" d="M3742.509,3506.9a4.522,4.522,0,0,1-.491-.243c-.364-.238-1.007-.35-.844-.922.187-.655.836-.364,1.306-.37a1.116,1.116,0,0,1,.524.147c.892.489,1.037-.148,1.31-.774.409-.941-.381-.879-.814-1a4.827,4.827,0,0,0-2.845-.063,2.231,2.231,0,0,0-1.77,1.874,2.306,2.306,0,0,0,1.1,2.477c.587.353,1.225.621,1.827.951.283.155.559.363.441.758a.67.67,0,0,1-.775.435c-.806-.085-1.6-.25-2.406-.383-.236,1.984-.034,2.19,2.129,2.2,1.772.007,2.967-.7,3.268-1.933C3744.816,3508.621,3744.291,3507.777,3742.509,3506.9Z" transform="translate(-823.71 -126.625)" fill="#1ba6ea"></path><path id="Path_88" data-name="Path 88" d="M3417.117,3511.645c1.148-.041,2.3-.04,3.448,0,.6.019.788-.192.792-.788,0-.623-.125-.963-.831-.886-.409.044-.83-.026-1.24.011-.685.063-.7-.342-.717-.854-.016-.565.124-.872.759-.811.41.039.83-.022,1.24.015.606.055.787-.193.791-.787,0-.622-.124-.964-.831-.886-.409.045-.83-.024-1.24.014-.679.063-.71-.332-.719-.85-.01-.557.113-.875.754-.819.457.04.921-.022,1.379.011.617.045.647-.323.643-.781,0-.48.029-.827-.674-.9-4.244-.454-4.3-.429-4.3,3.769,0,.138,0,.276,0,.414,0,1.1.022,2.208-.007,3.311C3416.349,3511.378,3416.476,3511.668,3417.117,3511.645Z" transform="translate(-519.334 -126.292)" fill="#1ba6ea"></path><path id="Path_89" data-name="Path 89" d="M3271.208,3742.769c-.779-.007-1.449.2-1.474,1.063-.029.958.687,1.16,1.515,1.157q5.924-.016,11.848,0c.777,0,1.449-.2,1.473-1.064.027-.959-.683-1.164-1.514-1.157-1.975.017-3.949.006-5.924.006S3273.183,3742.787,3271.208,3742.769Z" transform="translate(-380.941 -352.467)" fill="#1ba6ea"></path><path id="Path_90" data-name="Path 90" d="M3283.129,3841.045c-1.975.017-3.949.005-5.924.005s-3.949.012-5.924-.006c-.825-.008-1.546.179-1.54,1.135.006.864.67,1.087,1.451,1.085q5.993-.015,11.986,0c.795,0,1.419-.269,1.4-1.134S3283.913,3841.038,3283.129,3841.045Z" transform="translate(-380.949 -445.221)" fill="#1ba6ea"></path><path id="Path_91" data-name="Path 91" d="M3271.217,3941.543q5.924-.018,11.848,0c.837,0,1.536-.224,1.493-1.179-.038-.864-.721-1.049-1.493-1.042-1.928.019-3.857.006-5.786.006-2.021,0-4.041.011-6.062-.005-.838-.007-1.536.226-1.495,1.178C3269.759,3941.363,3270.447,3941.545,3271.217,3941.543Z" transform="translate(-380.929 -537.978)" fill="#1ba6ea"></path></g></g></svg>